<?xml version="1.0" encoding="UTF-8" standalone="no"?>
<!-- Created with Inkscape (http://www.inkscape.org/) -->

<svg
   width="210mm"
   height="297mm"
   viewBox="0 0 210 297"
   version="1.1"
   id="svg5"
   inkscape:version="1.2.1 (9c6d41e410, 2022-07-14)"
   sodipodi:docname="icons.svg"
   xmlns:inkscape="http://www.inkscape.org/namespaces/inkscape"
   xmlns:sodipodi="http://sodipodi.sourceforge.net/DTD/sodipodi-0.dtd"
   xmlns="http://www.w3.org/2000/svg"
   xmlns:svg="http://www.w3.org/2000/svg">
  <sodipodi:namedview
     id="namedview7"
     pagecolor="#ffffff"
     bordercolor="#000000"
     borderopacity="0.25"
     inkscape:showpageshadow="2"
     inkscape:pageopacity="0"
     inkscape:pagecheckerboard="0"
     inkscape:deskcolor="#d1d1d1"
     inkscape:document-units="mm"
     showgrid="false"
     showguides="true"
     inkscape:zoom="1.829812"
     inkscape:cx="159.85249"
     inkscape:cy="376.54141"
     inkscape:window-width="2560"
     inkscape:window-height="1387"
     inkscape:window-x="2552"
     inkscape:window-y="-8"
     inkscape:window-maximized="1"
     inkscape:current-layer="layer1" />
  <defs
     id="defs2" />
  <g
     inkscape:label="Layer 1"
     inkscape:groupmode="layer"
     id="layer1">
    <g
       id="g499">
      <rect
         style="fill:#000000;stroke-width:0.264583"
         id="rect111"
         width="11.278481"
         height="9.5433302"
         x="34.847614"
         y="100.92794" />
      <path
         style="fill:#000000;stroke-width:0.264583"
         d="m 34.847612,101.98628 v -3.44909 c 0,0 0.717075,-4.115363 5.639241,-4.115363 4.994465,0 5.63924,3.885303 5.63924,3.885303 v 3.67915 h -2.050331 v -2.85577 c 0,0 -0.07181,-2.867834 -3.588909,-2.867834 -3.5171,0 -3.798273,2.867834 -3.798273,2.867834 v 2.85577 z"
         id="path221"
         sodipodi:nodetypes="ccsccccsccc" />
      <path
         id="path433"
         style="fill:#ffffff;stroke-width:0.481898"
         d="m 39.671297,102.99929 v 2.97515 a 1.3501182,1.3501182 0 0 0 -0.534606,1.07486 1.3501182,1.3501182 0 0 0 1.349692,1.35062 1.3501182,1.3501182 0 0 0 1.350632,-1.35062 1.3501182,1.3501182 0 0 0 -0.535546,-1.07486 v -2.97515 z" />
    </g>
    <path
       id="rect111-9"
       style="fill:#000000;stroke-width:0.264583"
       d="M 17.49609 93.336938 C 12.573929 93.336938 11.856641 97.45245 11.856641 97.45245 L 11.856641 99.843001 L 11.856641 100.90133 L 11.856641 109.3866 L 23.135539 109.3866 L 23.135539 100.90133 L 23.135539 99.843001 L 23.135539 97.222489 C 23.135539 97.222489 22.49055 93.336938 17.49609 93.336938 z M 17.49609 95.177653 C 21.013185 95.177653 21.085018 98.045695 21.085018 98.045695 L 21.085018 99.843001 L 13.697872 99.843001 L 13.697872 98.045695 C 13.697872 98.045695 13.978993 95.177653 17.49609 95.177653 z M 16.680636 101.91471 L 18.31051 101.91471 L 18.31051 104.88972 A 1.3501182 1.3501182 0 0 1 18.846395 105.96459 A 1.3501182 1.3501182 0 0 1 17.495573 107.3149 A 1.3501182 1.3501182 0 0 1 16.145785 105.96459 A 1.3501182 1.3501182 0 0 1 16.680636 104.88972 L 16.680636 101.91471 z " />
  </g>
</svg>
